<svg xmlns="http://www.w3.org/2000/svg" viewBox="0 0 128 128" role="img" aria-label="Vol d&#39;Histoire — emblem">
  <rect x="1" y="1" width="126" height="126" fill="none" stroke="#C8A96E" stroke-width="1" opacity=".5"></rect>
  <g stroke="#C8A96E" stroke-width="1" opacity=".7">
    <line x1="64" y1="2" x2="64" y2="12"></line>
    <line x1="64" y1="116" x2="64" y2="126"></line>
    <line x1="2" y1="64" x2="12" y2="64"></line>
    <line x1="116" y1="64" x2="126" y2="64"></line>
  </g>
  <g fill="#C8A96E">
    <path d="M64 30 L66 60 L66 80 L68 92 L64 90.5 L60 92 L62 80 L62 60 Z"></path>
    <path d="M64 58 L94 82 L94 86 L64 76 L34 86 L34 82 Z"></path>
    <path d="M64 82 L76 92 L76 94 L64 91 L52 94 L52 92 Z"></path>
  </g>
</svg>